# xmcd
#
# Track frame offsets:
#	150
#	17487
#	36552
#	53399
#	70497
#	90907
#	113299
#	132924
#	150329
#	170859
#	192838
#	215218
#
# Disc length: 3158 seconds
#
# Revision: 3276833
# Processed by: cddbd v1.5.2PL0 Copyright (c) Steve Scherf et al.
# Submitted via: EZCDAudioConverter 8.0.2.1
#
DISCID=9a0c540c
DTITLE=Various Artist - Top Hits 48. Môi Xinh Nụ Cười
DYEAR=2012
DGENRE=Contemporary Pop
TTITLE0=Lam Anh - Ngỡ
TTITLE1=Mai Tiến Dũng - Môi Xinh Nụ Cười
TTITLE2=Tóc Tiên - Gục ngã
TTITLE3=Kỳ Phương Uyên - Một mình trong đêm
TTITLE4=Trình Lâm - Hỏi người còn nhớ đến ta
TTITLE5=Ho Le Thu - Chén đắng
TTITLE6=Don Ho - Đời không còn nhau
TTITLE7=Quỳnh Vi - Hoang mang
TTITLE8=Nguyễn Hưng - Tình yêu không có lỗi
TTITLE9=Lương Tùng Quang - Anh và em
TTITLE10=Lưu Bích - Muộn
TTITLE11=Diem Suong - Yêu
EXTD=
EXTT0=
EXTT1=
EXTT2=
EXTT3=
EXTT4=
EXTT5=
EXTT6=
EXTT7=
EXTT8=
EXTT9=
EXTT10=
EXTT11=
PLAYORDER=
